<?xml version="1.0" encoding="UTF-8"?>
<svg id="Layer_1" data-name="Layer 1" xmlns="http://www.w3.org/2000/svg" viewBox="0 0 910.98 313.41">
  <defs>
    <style>
      .cls-1 {
        fill: #a0834b;
      }

      .cls-2 {
        fill: #a0844c;
      }

      .cls-3 {
        fill: #9f8247;
      }

      .cls-4 {
        fill: #a2844a;
      }

      .cls-5 {
        fill: #36373d;
      }

      .cls-6 {
        fill: #383a3f;
      }

      .cls-7 {
        fill: #38393e;
      }

      .cls-8 {
        fill: #36383d;
      }

      .cls-9 {
        fill: #37383d;
      }

      .cls-10 {
        fill: #9d8049;
      }

      .cls-11 {
        fill: #a1854e;
      }

      .cls-12 {
        fill: #383a40;
      }
    </style>
  </defs>
  <g>
    <path class="cls-7" d="M767.77,139.1c-2.44,12.5-4.74,24.22-7.02,35.93-.53,2.75-2.73,2-4.39,2-20.82,.06-41.64,.05-62.46,.06-9.33,0-18.66,.06-27.98,0-1.31-.01-2.95,.76-4.03-.82,.95-1.48,2.45-.81,3.65-1.06,4.66-.95,7.38-3.72,7.94-8.4,.33-2.8,.41-5.65,.41-8.47,.03-41.31,0-82.62,.03-123.94,0-13.41,.07-13.41-11.55-18.02,.67-1.52,2.01-.82,3.02-.82,29.32-.02,58.64,.06,87.95-.07,3.52-.02,4.97,.75,5.22,4.5,.55,8.13,1.61,16.23,2.39,24.36,.1,1,.95,2.3-.54,3.06-1.19-.11-1.12-1.09-1.34-1.81-5.25-17.42-15.66-25.85-34.13-26.94-9.3-.55-18.65-.24-27.97-.51-2.69-.08-3.37,.87-3.37,3.44,.04,22.82,.01,45.64-.14,68.46-.02,3,1.17,3.62,3.81,3.58,8.33-.12,16.66,.1,24.98-.12,11.39-.3,19.43-5.19,22.54-17v38.52c-.49-.05-.75-.03-.77-.09-5.78-15.33-9.23-17.74-25.77-17.81-7-.03-13.99,.13-20.98-.03-2.83-.07-3.65,.9-3.67,3.68-.18,21.31-.5,42.63-.77,63.94,0,.67,.03,1.33,.06,2,.39,7.54,.39,7.56,7.9,7.59,8.49,.03,16.96,.06,25.44-.9,19.05-2.16,31.15-12.9,38.35-30.06,.54-1.29,.42-2.99,3.19-4.25Z"/>
    <path class="cls-6" d="M608.68,47.22c-1.04-3.1-2.02-6.23-3.13-9.3-4.94-13.68-16.83-23.02-29.96-23.69-11.89-.6-21.61,3.56-26.9,14.42-5.5,11.29-4.7,22.7,3.23,32.94,5.53,7.13,13.24,11.53,20.89,15.99,8.77,5.11,17.76,9.95,26.09,15.71,16.26,11.24,24.21,26.75,21.4,46.77-2.96,21.13-22.67,38.36-44.29,39.27-15.24,.64-29.81-1.97-43.77-8.22-2.67-1.2-3.68-2.53-3.63-5.53,.15-8.66-.13-17.32-.16-25.98,0-1.35-.71-2.9,1.08-4.55,.63,1.94,1.16,3.57,1.69,5.21,5.73,17.64,15.55,31.56,34.91,35.45,12.06,2.42,23.5,.13,31.75-9.88,8.3-10.08,9.54-21.71,5.09-33.88-3.74-10.22-11.56-16.92-20.41-22.55-11.23-7.14-23.35-12.86-33.84-21.19-16.66-13.24-22.11-34.21-13.22-52.88,7.13-14.98,19.48-22.72,35.94-23.94,12.02-.89,23.51,1.35,34.62,5.98,2.91,1.21,3.95,2.79,3.86,5.93-.22,7.92-.07,15.85-.07,23.78-.39,.05-.79,.1-1.18,.15Z"/>
    <path class="cls-8" d="M58.79,176.14c-1.48,.58-1.89,.88-2.31,.88-14.1,.02-28.21,.02-42.26,.02-.26-1.06,.13-1.42,.9-1.57,8.52-1.68,10.56-3.7,10.58-12.22,.11-44.82,.11-89.64,.02-134.47-.02-7.9-1.89-9.61-11.48-12.22,.43-1.77,1.88-.96,2.81-.96,29.16-.04,58.32,.06,87.48-.11,3.88-.02,5.14,1.06,5.38,4.91,.51,8.14,1.56,16.24,2.36,24.36,.09,.88,.83,1.95-1,2.83-.87-2.42-1.7-4.81-2.59-7.18-4.37-11.71-13.31-18.07-25.04-20.71-11.66-2.63-23.58-1.16-35.38-1.47-3.42-.09-2.34,2.65-2.35,4.36-.06,18.33-.02,36.66,0,54.98,0,4.83,.07,9.67,0,14.5-.03,2,.47,3.16,2.75,3.08,9.64-.32,19.3,.77,28.94-.59,9.02-1.27,15.03-5.83,17.28-14.89,.14-.58,.53-1.09,1.54-1.53v38.09c-2.04-1.37-1.71-3.42-2.21-4.97-2.22-6.89-6.9-10.93-13.94-12.01-10.6-1.62-21.29-.6-31.94-.83-2.05-.05-2.47,.98-2.46,2.79,.1,21.16-.06,42.32,.3,63.48,.13,7.86,2.19,9.3,12.62,11.45Z"/>
    <path class="cls-12" d="M805.32,134.54c1.72,4.78,2.92,8.69,4.5,12.43,5.68,13.44,14.17,24.17,28.97,28.18,15.99,4.33,31.86-1.46,38.37-13.75,7.66-14.45,4.06-33.2-8.41-44.24-9.32-8.24-20.44-13.7-30.92-20.14-9.55-5.87-18.87-11.91-24.75-21.96-16.23-27.71,3.45-62.93,35.52-63.72,11.69-.29,22.86,1.47,33.59,6.2,2.61,1.15,3.76,2.51,3.67,5.54-.25,7.93-.08,15.88-.08,24.45-2.42-1.64-2.21-3.85-2.79-5.56-3.84-11.33-9.99-20.61-21.45-25.54-17.04-7.33-36.85,2.32-39.69,19.78-2.13,13.07,2.21,24.03,12.86,32.11,9.18,6.97,19.43,12.25,29.41,17.94,7.26,4.14,14.33,8.58,19.97,14.84,12.93,14.34,16.21,30.88,9.08,48.68-7.12,17.76-20.99,27.63-40.05,29.39-15.02,1.38-29.48-1.32-43.31-7.56-3.43-1.55-4.63-3.41-4.54-7.1,.24-9.61,.08-19.23,.08-29.95Z"/>
    <path class="cls-9" d="M255.31,137.91c-1.91,9.6-3.74,19.21-5.74,28.79-2.17,10.41-2.24,10.37-12.97,10.38-27.64,.01-55.29,.04-82.93,.06-.6,0-1.21-.1-1.74-.15-.3-1.09,.15-1.36,.9-1.5,8.43-1.53,10.66-3.53,10.81-12.06,.34-19.81,.28-39.63,.31-59.45,.03-22.98,.03-45.97-.04-68.95-.04-12.54-.24-12.71-13.03-16.95h42.7c-10.33,5.73-10.38,5.73-10.43,18.34-.19,42.3-.37,84.6-.5,126.89-.04,11.09,.04,11.05,10.9,11.04,7.17,0,14.29-.34,21.37-1.65,16.9-3.13,28.32-13.13,35.8-28.18,1.15-2.32,2.19-4.69,3.28-7.04,.43,.14,.87,.28,1.3,.42Z"/>
    <path class="cls-6" d="M290.43,15.81h41.9c-.31,.59-.43,1.23-.73,1.32-9.09,2.81-9.75,3.54-9.76,12.81-.04,43.29-.02,86.58-.02,129.88,0,.5,0,1,.02,1.5,.23,10.91,.66,11.51,10.8,15.26h-42.08c.83-.6,1.14-.99,1.52-1.09,8.53-2.11,9.82-3.44,9.86-12.21,.14-29.3,.13-58.61,.15-87.92,.01-13.65,.02-27.31-.04-40.96q-.05-13.06-11.63-18.6Z"/>
    <path class="cls-5" d="M375.03,15.72h43.57c.16,1.83-1.11,1.54-1.98,1.72-7.02,1.51-9.05,5.11-5.93,11.44,3.81,7.75,7.92,15.36,12.02,22.97,4.26,7.9,8.65,15.72,13.01,23.57,.92,1.65,1.55,3.14,.45,5.09-3,5.36-5.8,10.83-8.86,16.6-4.75-6.2-7.83-13.01-11.4-19.5-8.33-15.15-16.48-30.41-24.87-45.53-4.99-8.99-3.16-11.42-16.01-16.35Z"/>
    <path class="cls-6" d="M497.5,176.84h-44.11c-.29-.94,.2-1.28,.64-1.3,8.43-.41,11.08-5.9,6.66-14.09-7.1-13.17-14.06-26.42-21.48-39.41-2.27-3.97-2.41-7.12-.03-10.86,2.64-4.16,4.96-8.52,7.79-13.43,5.88,10.81,11.43,20.96,16.92,31.14,6.48,12,13.06,23.94,19.31,36.05,3.14,6.08,7.53,10.17,14.3,11.89Z"/>
    <path class="cls-1" d="M284.38,249.91h15.67c-3.81,1.75-3.36,5.05-3.34,8.18,.06,10.5-.25,21.01,.27,31.49,.7,14.19,13.85,21.13,25.2,13.63,5.18-3.42,7.32-8.56,7.42-14.5,.17-10.49,.02-20.99,.1-31.49,.03-3.35-1.01-5.82-4.43-7.24h11.49c-4.32,2.02-3.71,6-3.69,9.77,.03,9.66,.41,19.33-.04,28.96-.61,12.85-9.23,20.07-22.71,19.79-13.66-.28-22.07-8.06-22.34-20.99-.2-9.49-.06-18.99-.1-28.49-.01-3.42,.68-7.14-3.48-9.1Z"/>
    <path class="cls-11" d="M598.91,270.47c.24,5.19,.43,9.23,.61,13.27-4.78-8.52-12.71-4.84-19.36-5.42-1.8-.16-2.06,1.42-2.06,2.8,0,6.66,.06,13.31,.1,19.97,.02,3.34,1.68,4.36,5.01,4.58,9.16,.6,17.38-.38,22.48-9.75-.63,3.11-1.33,6.22-1.88,9.35-.42,2.38-2.18,2.13-3.82,2.13-11.32,.01-22.63,0-35.22,0,3.97-2.07,4.34-4.71,4.34-7.74,0-13.65,.17-27.29,.26-40.94,.02-3.37-.04-6.73-3.99-9.05,11.34,0,22.68,.04,34.02-.03,2.22-.01,2.98,1.09,3.01,3.02,.04,2.31,0,4.63,0,7.12-.46-.19-1.15-.26-1.23-.52-1.98-6.17-6.71-7.8-12.52-7.65-11.45,.29-10.05-2.67-10.67,10.07-.18,3.65,.02,7.32,.04,10.98,0,1.79,.23,3.45,2.58,3.4,4.32-.1,8.64-.23,12.95-.4,2.63-.11,3.64-2.39,5.34-5.18Z"/>
    <path class="cls-3" d="M690.55,261.34c-1.78-2.94-2.83-5.19-4.34-7.08-3.83-4.78-12.43-5.25-16.56-1.07-3.56,3.6-2.85,10.64,1.9,14.59,4.08,3.39,8.67,6.17,12.85,9.45,4.32,3.39,8.71,6.89,9.32,12.98,.96,9.56-5.31,17.15-15.11,18.17-3.47,.36-6.96,.22-10.42-.59-9.47-2.23-11.14-5.1-8.28-15.21,.98,2.14,1.76,4.05,2.71,5.86,1.67,3.19,4.06,5.65,7.43,7.09,5.85,2.49,12.43,1.09,15.3-3.31,3.13-4.79,1.96-11.34-3.29-15.6-4.64-3.76-9.72-6.98-14.52-10.54-5.62-4.18-8.14-9.76-6.14-16.61,1.99-6.83,7.12-10.2,14.07-10.82,1.98-.18,4.01-.21,5.97,.05,9.6,1.29,9.87,1.69,9.1,12.63Z"/>
    <path class="cls-4" d="M225.67,260.46c-2.66-6.94-7-10.64-14.14-10.01-7.83,.69-11.31,8.03-6.89,14.57,2.29,3.39,5.74,5.51,8.96,7.87,2.82,2.06,5.7,4.05,8.55,6.07,6.13,4.32,8.47,10.27,6.63,17.44-1.81,7.06-7.23,10.55-14.03,11.89-2.41,.47-4.99,.4-7.46,.16-11.72-1.14-13.42-3.32-12.1-15.46,1.9,.85,1.7,2.8,2.39,4.1,2.62,4.96,6.07,8.68,11.96,9.58,5.13,.78,9.96-1.23,11.97-5.2,2.22-4.37,1.39-9.62-2.41-13.28-4.22-4.05-9.23-7.09-13.99-10.44-4.01-2.82-7.64-5.99-8.46-11.23-1.71-11,6.21-18.81,18.22-17.93,.99,.07,1.97,.33,2.95,.49q8.72,1.41,7.84,11.39Z"/>
    <path class="cls-10" d="M512.06,259.73c-4.37-6.6-11.78-9.3-18.06-7.67-1.8,.46-1.89,1.63-1.89,2.97-.01,15.32-.03,30.64,.02,45.96,0,2.64,1.2,4.71,3.75,6.1h-16.43c4.65-2.14,4.16-5.59,4.17-8.85,.01-13.99-.1-27.98,.04-41.97,.03-3.26-.91-4.38-4.24-4.22-5.93,.29-12.17-.62-15.89,7.08,.5-9.12,.5-8.94,7.94-9.03,11.98-.15,23.98,.59,35.94-.57,2.82-.27,4.51,.19,4.34,3.49-.09,1.81,.14,3.63,.29,6.69Z"/>
    <path class="cls-2" d="M410.23,307.2h-17.48c3.44-1.77,3.85-4.8,3.83-8.27-.08-13.63-.04-27.26,.06-40.89,.02-3.37-.27-6.38-3.96-8.05h17.16c-5.43,2.61-4.78,6.43-4.76,10.02,.09,13.3,.28,26.59,.3,39.89,0,2.97,.39,5.56,4.85,7.29Z"/>
    <path class="cls-4" d="M517.27,5.05c-6.57-.8-17.09,2.02-23.55,6.24-11.82,7.72-20.76,18.1-27.94,30.12h0c-10.75,14.47-19.57,30.11-27.87,46.06,0,0,0,0,0,0-6.08,11.03-12.07,22.11-18.27,33.08-10.26,18.17-20.21,36.58-34.25,52.05-5.29,5.83-11.32,10.98-17.86,15.37-.69,.46-1.38,.91-2.08,1.35-16.84,10.49-35.28,15.34-55.07,15.21-5.76-.04-11.46,.45-17.53,1.4,3.4,2.39,4.21,2.86,8.35,3.5,29.47,4.59,63.08-11.74,78.42-24.14,14.19-11.47,31.89-36.16,43.29-55.37,6.93-11.68,13.97-23.3,19.83-35.58,8.98-15.66,17.96-31.33,26.94-46.99,0,0,0,0,0,0,2.31-3.24,4.63-6.48,6.94-9.73,10.15-14.28,22.22-26.11,39.61-31.19,.63-.18,1.24-.52,1.02-1.39Z"/>
  </g>
  <path class="cls-4" d="M293.88,205.63c5.75-.32,11.49-.86,17.24-.94,37.89-.5,67.1-17.14,87.18-48.74,13.92-21.9,25.94-44.99,39.11-67.38,10.55-17.94,21.35-35.73,32.42-53.35,5.99-9.53,13.91-17.42,23.41-23.62,6.58-4.3,13.9-6,23.07-6.82-1.67,1.22-2.07,1.7-2.58,1.87-13.99,4.61-24.92,13.5-33.41,25.16-8.32,11.43-16.34,23.15-23.47,35.35-13.75,23.52-26.39,47.7-40.23,71.17-12.19,20.67-27.43,39.04-46.89,53.35-19.98,14.69-42.32,21.49-67.28,17.65-2.91-.45-5.74-1.43-8.61-2.16,0-.51,.02-1.01,.03-1.52Z"/>
</svg>